<svg width="640" height="420" viewBox="0 0 640 420" fill="none" xmlns="http://www.w3.org/2000/svg">
  <rect width="640" height="420" rx="36" fill="#F6F2FF"/>
  <rect x="48" y="54" width="544" height="312" rx="28" fill="white"/>
  <rect x="86" y="94" width="166" height="16" rx="8" fill="#7C3AED" fill-opacity="0.14"/>
  <rect x="86" y="126" width="214" height="12" rx="6" fill="#E8DFFF"/>
  <rect x="86" y="164" width="140" height="132" rx="20" fill="#F6F2FF"/>
  <rect x="246" y="164" width="140" height="132" rx="20" fill="#EFE7FF"/>
  <rect x="406" y="164" width="146" height="132" rx="20" fill="#F8F5FF"/>
  <rect x="104" y="188" width="72" height="72" rx="18" fill="#DDD0FF"/>
  <rect x="264" y="188" width="72" height="72" rx="18" fill="#B79AF9"/>
  <rect x="424" y="188" width="92" height="16" rx="8" fill="#D7C6FF"/>
  <rect x="424" y="216" width="110" height="12" rx="6" fill="#EDE6FF"/>
  <rect x="424" y="238" width="76" height="12" rx="6" fill="#EDE6FF"/>
  <path d="M92 330C136.667 292.667 182 278 228 286C274 294 308 316 348 320C388 324 426.333 303.667 463 259" stroke="#7C3AED" stroke-width="10" stroke-linecap="round"/>
  <circle cx="462" cy="259" r="18" fill="#7C3AED"/>
</svg>
